name ./resultDataOpenSim/trcMotMarkerGrf/sub06/grf-04-06.mot
datacolumns 19
datarows 17
range 1.66400000 1.72800000
endheader

                time	     ground_force_vx	     ground_force_vy	     ground_force_vz	     ground_force_px	     ground_force_py	     ground_force_pz	   l_ground_force_vx	   l_ground_force_vy	   l_ground_force_vz	   l_ground_force_px	   l_ground_force_py	   l_ground_force_pz	     ground_torque_x	     ground_torque_y	     ground_torque_z	   l_ground_torque_x	   l_ground_torque_y	   l_ground_torque_z	
          1.66400000	        185.44146981	        696.24480004	        -50.56757043	          0.85620892	          0.00000000	          0.09871216	          0.00000000	          0.00000000	          0.00000000	          0.00000000	          0.00000000	          0.00000000	          0.00000000	          4.87287641	          0.00000000	          0.00000000	          0.00000000	          0.00000000	
          1.66800000	        189.84054076	        682.71489387	        -49.43419246	          0.85654372	          0.00000000	          0.09838345	          0.00000000	          0.00000000	          0.00000000	          0.00000000	          0.00000000	          0.00000000	          0.00000000	          4.83618771	          0.00000000	          0.00000000	          0.00000000	          0.00000000	
          1.67200000	        194.54122181	        667.00152139	        -48.27686872	          0.85674849	          0.00000000	          0.09805430	          0.00000000	          0.00000000	          0.00000000	          0.00000000	          0.00000000	          0.00000000	          0.00000000	          4.75770750	          0.00000000	          0.00000000	          0.00000000	          0.00000000	
          1.67600000	        199.34982440	        648.83490878	        -47.22193471	          0.85682809	          0.00000000	          0.09772924	          0.00000000	          0.00000000	          0.00000000	          0.00000000	          0.00000000	          0.00000000	          0.00000000	          4.63279674	          0.00000000	          0.00000000	          0.00000000	          0.00000000	
          1.68000000	        203.86517896	        627.92134508	        -46.30513862	          0.85679403	          0.00000000	          0.09739769	          0.00000000	          0.00000000	          0.00000000	          0.00000000	          0.00000000	          0.00000000	          0.00000000	          4.46168778	          0.00000000	          0.00000000	          0.00000000	          0.00000000	
          1.68400000	        207.54933685	        603.91175093	        -45.45803795	          0.85664767	          0.00000000	          0.09705007	          0.00000000	          0.00000000	          0.00000000	          0.00000000	          0.00000000	          0.00000000	          0.00000000	          4.24852087	          0.00000000	          0.00000000	          0.00000000	          0.00000000	
          1.68800000	        209.79625224	        576.38000103	        -44.52026037	          0.85640394	          0.00000000	          0.09669107	          0.00000000	          0.00000000	          0.00000000	          0.00000000	          0.00000000	          0.00000000	          0.00000000	          3.99847222	          0.00000000	          0.00000000	          0.00000000	          0.00000000	
          1.69200000	        210.01213350	        544.88334751	        -43.28132427	          0.85610218	          0.00000000	          0.09633896	          0.00000000	          0.00000000	          0.00000000	          0.00000000	          0.00000000	          0.00000000	          0.00000000	          3.71516704	          0.00000000	          0.00000000	          0.00000000	          0.00000000	
          1.69600000	        207.70674931	        509.09312745	        -41.53151274	          0.85579541	          0.00000000	          0.09601934	          0.00000000	          0.00000000	          0.00000000	          0.00000000	          0.00000000	          0.00000000	          0.00000000	          3.40052323	          0.00000000	          0.00000000	          0.00000000	          0.00000000	
          1.70000000	        202.54350221	        468.94514720	        -39.07937346	          0.85549232	          0.00000000	          0.09576152	          0.00000000	          0.00000000	          0.00000000	          0.00000000	          0.00000000	          0.00000000	          0.00000000	          3.05744644	          0.00000000	          0.00000000	          0.00000000	          0.00000000	
          1.70400000	        194.31433132	        424.79893310	        -35.76247631	          0.85514694	          0.00000000	          0.09559690	          0.00000000	          0.00000000	          0.00000000	          0.00000000	          0.00000000	          0.00000000	          0.00000000	          2.69373126	          0.00000000	          0.00000000	          0.00000000	          0.00000000	
          1.70800000	        182.87968934	        377.57042913	        -31.49687081	          0.85473657	          0.00000000	          0.09552170	          0.00000000	          0.00000000	          0.00000000	          0.00000000	          0.00000000	          0.00000000	          0.00000000	          2.32457486	          0.00000000	          0.00000000	          0.00000000	          0.00000000	
          1.71200000	        168.17507061	        328.72636307	        -26.33455437	          0.85437037	          0.00000000	          0.09549212	          0.00000000	          0.00000000	          0.00000000	          0.00000000	          0.00000000	          0.00000000	          0.00000000	          1.97169664	          0.00000000	          0.00000000	          0.00000000	          0.00000000	
          1.71600000	        150.33906314	        280.07986479	        -20.48865723	          0.85431928	          0.00000000	          0.09543094	          0.00000000	          0.00000000	          0.00000000	          0.00000000	          0.00000000	          0.00000000	          0.00000000	          1.65884917	          0.00000000	          0.00000000	          0.00000000	          0.00000000	
          1.72000000	        129.86476793	        233.47908563	        -14.32844262	          0.85492491	          0.00000000	          0.09524780	          0.00000000	          0.00000000	          0.00000000	          0.00000000	          0.00000000	          0.00000000	          0.00000000	          1.40550450	          0.00000000	          0.00000000	          0.00000000	          0.00000000	
          1.72400000	        107.62887047	        190.52344098	         -8.33740021	          0.85652124	          0.00000000	          0.09486428	          0.00000000	          0.00000000	          0.00000000	          0.00000000	          0.00000000	          0.00000000	          0.00000000	          1.22146900	          0.00000000	          0.00000000	          0.00000000	          0.00000000	
          1.72800000	         84.77757380	        152.34793890	         -3.01889071	          0.85951746	          0.00000000	          0.09422924	          0.00000000	          0.00000000	          0.00000000	          0.00000000	          0.00000000	          0.00000000	          0.00000000	          1.10460839	          0.00000000	          0.00000000	          0.00000000	          0.00000000	
